<svg xmlns="http://www.w3.org/2000/svg" viewBox="0 0 400 400" role="img" aria-label="nabulsi soap" width="400" height="400">
<title>nabulsi soap</title>
<defs>
<linearGradient id="oil" x1="0" y1="0" x2="0" y2="1"><stop offset="0" stop-color="#cfa227"/><stop offset="1" stop-color="#9c7414"/></linearGradient>
<linearGradient id="tin" x1="0" y1="0" x2="1" y2="0"><stop offset="0" stop-color="#d8b34a"/><stop offset=".45" stop-color="#f0d47f"/><stop offset="1" stop-color="#b8912f"/></linearGradient>
<linearGradient id="glass" x1="0" y1="0" x2="1" y2="0"><stop offset="0" stop-color="#4a6a35"/><stop offset=".45" stop-color="#7ea354"/><stop offset="1" stop-color="#3d5a2b"/></linearGradient>
<linearGradient id="pail" x1="0" y1="0" x2="1" y2="0"><stop offset="0" stop-color="#e4e9e2"/><stop offset=".45" stop-color="#ffffff"/><stop offset="1" stop-color="#d3dad0"/></linearGradient>
<linearGradient id="pouch" x1="0" y1="0" x2="1" y2="0"><stop offset="0" stop-color="#4d7c2f"/><stop offset=".45" stop-color="#74a84a"/><stop offset="1" stop-color="#416b27"/></linearGradient>
<linearGradient id="jar" x1="0" y1="0" x2="1" y2="0"><stop offset="0" stop-color="#9fc27a" stop-opacity=".85"/><stop offset=".45" stop-color="#cfe3b4" stop-opacity=".9"/><stop offset="1" stop-color="#8fb06b" stop-opacity=".85"/></linearGradient>
<linearGradient id="cer" x1="0" y1="0" x2="1" y2="0"><stop offset="0" stop-color="#e8eef3"/><stop offset=".45" stop-color="#ffffff"/><stop offset="1" stop-color="#dde6ee"/></linearGradient>
<radialGradient id="shadow" cx=".5" cy=".5" r=".5"><stop offset="0" stop-color="#00302d" stop-opacity=".18"/><stop offset="1" stop-color="#00302d" stop-opacity="0"/></radialGradient>
</defs>
<ellipse cx="200" cy="352" rx="118" ry="20" fill="url(#shadow)"/>
<g transform="translate(-40, 40)"><rect x="140" y="220" width="120" height="52" rx="8" fill="#efe6cf" stroke="#d6c9a8" stroke-width="2"/><circle cx="200" cy="246" r="17" fill="none" stroke="#00504c" stroke-width="2"/><text x="200" y="251" text-anchor="middle" font-family="Manrope,Arial,sans-serif" font-size="10" font-weight="800" fill="#00504c">WS</text></g><g transform="translate(0, 0)"><rect x="140" y="220" width="120" height="52" rx="8" fill="#efe6cf" stroke="#d6c9a8" stroke-width="2"/><circle cx="200" cy="246" r="17" fill="none" stroke="#00504c" stroke-width="2"/><text x="200" y="251" text-anchor="middle" font-family="Manrope,Arial,sans-serif" font-size="10" font-weight="800" fill="#00504c">WS</text></g><g transform="translate(40, -40)"><rect x="140" y="220" width="120" height="52" rx="8" fill="#efe6cf" stroke="#d6c9a8" stroke-width="2"/><circle cx="200" cy="246" r="17" fill="none" stroke="#00504c" stroke-width="2"/><text x="200" y="251" text-anchor="middle" font-family="Manrope,Arial,sans-serif" font-size="10" font-weight="800" fill="#00504c">WS</text></g>
</svg>